<svg width="300" height="102" viewBox="0 0 300 102" fill="none" xmlns="http://www.w3.org/2000/svg">
  <g filter="url(#filter0_d_3_44)">
    <rect x="30" y="26" width="240" height="42" rx="20" fill="black" />
    <path
      d="M50.56 54C50.3867 54 50.3 53.92 50.3 53.76V40.8C50.3 40.6267 50.3867 40.54 50.56 40.54H57.24C57.4 40.54 57.4933 40.5533 57.52 40.58C57.5467 40.6067 57.56 40.6933 57.56 40.84V42.24C57.56 42.4 57.54 42.5 57.5 42.54C57.46 42.5667 57.3733 42.58 57.24 42.58H53.12C53.0267 42.58 52.9733 42.5867 52.96 42.6C52.9467 42.6133 52.94 42.66 52.94 42.74V46.04C52.94 46.12 52.9467 46.1733 52.96 46.2C52.9867 46.2133 53.0333 46.22 53.1 46.22H56.34C56.5133 46.22 56.6133 46.24 56.64 46.28C56.6667 46.3067 56.68 46.4133 56.68 46.6V47.86C56.68 48.0333 56.66 48.14 56.62 48.18C56.5933 48.2067 56.5 48.22 56.34 48.22H53.1C53.0333 48.22 52.9867 48.2267 52.96 48.24C52.9467 48.2533 52.94 48.2933 52.94 48.36V51.78C52.94 51.86 52.9467 51.9133 52.96 51.94C52.9733 51.9533 53.02 51.96 53.1 51.96H57.2C57.3867 51.96 57.4933 51.98 57.52 52.02C57.5467 52.06 57.56 52.1667 57.56 52.34V53.62C57.56 53.8067 57.54 53.92 57.5 53.96C57.46 53.9867 57.3533 54 57.18 54H50.56ZM59.3216 54C59.1349 54 59.0416 53.9133 59.0416 53.74V45.56C59.0416 45.4267 59.0749 45.32 59.1416 45.24C59.2082 45.16 59.3216 45.0933 59.4816 45.04C59.7216 44.96 60.0216 44.88 60.3816 44.8C60.7549 44.7067 61.1282 44.6333 61.5016 44.58C61.8882 44.5133 62.2149 44.48 62.4816 44.48C63.1882 44.48 63.7616 44.56 64.2016 44.72C64.6549 44.8667 65.0616 45.0867 65.4216 45.38C65.6882 45.18 65.9482 45.02 66.2016 44.9C66.4682 44.7667 66.7349 44.6667 67.0016 44.6C67.2816 44.52 67.5816 44.48 67.9016 44.48C68.9549 44.48 69.7616 44.6867 70.3216 45.1C70.8816 45.5 71.2749 46.04 71.5016 46.72C71.7282 47.4 71.8416 48.16 71.8416 49C71.8416 49.68 71.8282 50.2867 71.8016 50.82C71.7749 51.3533 71.7349 51.8533 71.6816 52.32C71.6416 52.7867 71.5816 53.28 71.5016 53.8C71.5016 53.8933 71.4882 53.9533 71.4616 53.98C71.4349 53.9933 71.3882 54 71.3216 54H69.1816C69.1016 54 69.0482 53.98 69.0216 53.94C69.0082 53.8867 69.0016 53.78 69.0016 53.62C69.0416 53.2333 69.0749 52.7867 69.1016 52.28C69.1282 51.76 69.1482 51.2067 69.1616 50.62C69.1749 50.0333 69.1816 49.4667 69.1816 48.92C69.1816 48.7067 69.1616 48.4667 69.1216 48.2C69.0949 47.92 69.0282 47.6533 68.9216 47.4C68.8282 47.1333 68.6816 46.9133 68.4816 46.74C68.2816 46.5667 68.0149 46.48 67.6816 46.48C67.2949 46.48 67.0282 46.54 66.8816 46.66C66.7349 46.78 66.6616 46.9733 66.6616 47.24C66.6616 47.8133 66.6616 48.3733 66.6616 48.92C66.6749 49.4667 66.6816 50.0067 66.6816 50.54C66.6816 51.06 66.6749 51.5867 66.6616 52.12C66.6616 52.64 66.6616 53.1733 66.6616 53.72C66.6616 53.9067 66.5749 54 66.4016 54H64.2816C64.1616 54 64.1016 53.9333 64.1016 53.8V48.94C64.1016 48.46 64.0549 48.04 63.9616 47.68C63.8682 47.3067 63.7016 47.0133 63.4616 46.8C63.2349 46.5867 62.9082 46.48 62.4816 46.48C62.3616 46.48 62.2416 46.4933 62.1216 46.52C62.0149 46.5333 61.9149 46.56 61.8216 46.6C61.6616 46.6533 61.5816 46.7667 61.5816 46.94V53.68C61.5816 53.8933 61.4949 54 61.3216 54H59.3216ZM77.1352 54.14C76.4552 54.14 75.8152 54.0667 75.2152 53.92C74.6285 53.76 74.1485 53.46 73.7752 53.02C73.4152 52.58 73.2352 51.94 73.2352 51.1C73.2352 50.4067 73.3618 49.84 73.6152 49.4C73.8818 48.9467 74.2152 48.6 74.6152 48.36C75.0285 48.12 75.4552 47.96 75.8952 47.88C76.3352 47.7867 76.7285 47.74 77.0752 47.74C77.3552 47.74 77.6218 47.7533 77.8752 47.78C78.1418 47.7933 78.3885 47.82 78.6152 47.86C78.7352 47.9 78.7952 47.8133 78.7952 47.6C78.7952 47.1067 78.6418 46.76 78.3352 46.56C78.0418 46.36 77.6285 46.26 77.0952 46.26C76.5885 46.26 76.1018 46.3533 75.6352 46.54C75.1818 46.7267 74.7952 46.9 74.4752 47.06C74.3285 47.14 74.2285 47.1667 74.1752 47.14C74.1352 47.1133 74.1018 47.0267 74.0752 46.88L73.8952 45.76C73.8685 45.5867 73.8685 45.4733 73.8952 45.42C73.9218 45.3667 73.9952 45.3 74.1152 45.22C74.4618 44.9933 74.9018 44.8133 75.4352 44.68C75.9685 44.5333 76.5352 44.46 77.1352 44.46C78.0418 44.46 78.7685 44.5667 79.3152 44.78C79.8618 44.98 80.2685 45.2533 80.5352 45.6C80.8152 45.9467 80.9952 46.3467 81.0752 46.8C81.1685 47.24 81.2152 47.7 81.2152 48.18C81.2285 48.74 81.2285 49.2933 81.2152 49.84C81.2152 50.3733 81.2018 50.9067 81.1752 51.44C81.1485 51.9733 81.1085 52.5133 81.0552 53.06C81.0285 53.2067 80.9885 53.32 80.9352 53.4C80.8818 53.4667 80.7752 53.54 80.6152 53.62C80.4285 53.7133 80.1818 53.7933 79.8752 53.86C79.5685 53.9133 79.2352 53.96 78.8752 54C78.5285 54.0533 78.2018 54.0867 77.8952 54.1C77.5885 54.1267 77.3352 54.14 77.1352 54.14ZM77.2952 52.6C77.4018 52.6 77.5218 52.5933 77.6552 52.58C77.7885 52.5533 77.9218 52.52 78.0552 52.48C78.1885 52.44 78.2952 52.3867 78.3752 52.32C78.4685 52.2533 78.5218 52.1667 78.5352 52.06C78.5752 51.74 78.6085 51.3867 78.6352 51C78.6618 50.6133 78.6618 50.24 78.6352 49.88C78.6352 49.7067 78.5685 49.5867 78.4352 49.52C78.3018 49.4267 78.1085 49.3733 77.8552 49.36C77.6152 49.3333 77.4152 49.32 77.2552 49.32C77.1352 49.32 76.9818 49.3467 76.7952 49.4C76.6218 49.44 76.4552 49.52 76.2952 49.64C76.1352 49.76 76.0018 49.94 75.8952 50.18C75.8018 50.42 75.7552 50.7267 75.7552 51.1C75.7552 51.3933 75.8152 51.6533 75.9352 51.88C76.0552 52.1067 76.2285 52.2867 76.4552 52.42C76.6818 52.54 76.9618 52.6 77.2952 52.6ZM85.4697 41.98C85.4697 42.38 85.383 42.6867 85.2097 42.9C85.0364 43.1 84.6764 43.2 84.1297 43.2C83.6097 43.2 83.2497 43.1 83.0497 42.9C82.863 42.6867 82.7697 42.38 82.7697 41.98C82.7697 41.6333 82.863 41.3533 83.0497 41.14C83.2497 40.9133 83.6097 40.8 84.1297 40.8C84.703 40.8 85.0697 40.9133 85.2297 41.14C85.3897 41.3533 85.4697 41.6333 85.4697 41.98ZM85.4097 53.76C85.4097 53.92 85.323 54 85.1497 54H83.0897C82.9297 54 82.8497 53.92 82.8497 53.76V44.8C82.8497 44.64 82.9297 44.56 83.0897 44.56H85.1497C85.323 44.56 85.4097 44.64 85.4097 44.8V53.76ZM87.108 53.76V40.08C87.108 39.92 87.1946 39.84 87.368 39.84H89.388C89.5746 39.84 89.668 39.92 89.668 40.08V53.76C89.668 53.92 89.5746 54 89.388 54H87.368C87.1946 54 87.108 53.92 87.108 53.76Z"
      fill="white" />
  </g>
  <defs>
    <filter id="filter0_d_3_44" x="0" y="0" width="300" height="102" filterUnits="userSpaceOnUse"
      color-interpolation-filters="sRGB">
      <feFlood flood-opacity="0" result="BackgroundImageFix" />
      <feColorMatrix in="SourceAlpha" type="matrix" values="0 0 0 0 0 0 0 0 0 0 0 0 0 0 0 0 0 0 127 0"
        result="hardAlpha" />
      <feOffset dy="4" />
      <feGaussianBlur stdDeviation="15" />
      <feComposite in2="hardAlpha" operator="out" />
      <feColorMatrix type="matrix" values="0 0 0 0 0 0 0 0 0 0 0 0 0 0 0 0 0 0 0.3 0" />
      <feBlend mode="normal" in2="BackgroundImageFix" result="effect1_dropShadow_3_44" />
      <feBlend mode="normal" in="SourceGraphic" in2="effect1_dropShadow_3_44" result="shape" />
    </filter>
  </defs>
</svg>