<svg width="31" height="34" viewBox="0 0 31 34" fill="none" xmlns="http://www.w3.org/2000/svg">
  <path
    d="M2.34 27C2.08 27 1.95 26.88 1.95 26.64V7.2C1.95 6.94 2.08 6.81 2.34 6.81H7.41C8.97 6.81 10.23 7.02 11.19 7.44C12.17 7.84 12.89 8.49 13.35 9.39C13.81 10.29 14.04 11.51 14.04 13.05C14.04 14.13 13.85 15.14 13.47 16.08C13.09 17.02 12.49 17.8 11.67 18.42C11.39 18.68 11.18 18.92 11.04 19.14C10.92 19.36 10.97 19.65 11.19 20.01C11.35 20.37 11.53 20.73 11.73 21.09C11.93 21.43 12.15 21.74 12.39 22.02C12.63 22.3 12.9 22.54 13.2 22.74C13.52 22.96 13.88 23.13 14.28 23.25C14.68 23.37 15.15 23.43 15.69 23.43C15.87 23.43 15.98 23.45 16.02 23.49C16.08 23.53 16.11 23.66 16.11 23.88V26.64C16.11 26.76 16.09 26.84 16.05 26.88C16.01 26.92 15.89 26.95 15.69 26.97C15.49 26.99 15.15 27 14.67 27C13.85 27 13.09 26.88 12.39 26.64C11.71 26.4 11.09 26.07 10.53 25.65C10.03 25.27 9.56 24.82 9.12 24.3C8.7 23.76 8.33 23.18 8.01 22.56C7.69 21.94 7.41 21.29 7.17 20.61C7.15 20.57 7.11 20.46 7.05 20.28C6.99 20.1 6.9 20.01 6.78 20.01H6.09C5.97 20.01 5.91 20.16 5.91 20.46V26.64C5.91 26.88 5.77 27 5.49 27H2.34ZM5.91 16.62C5.91 16.7 5.93 16.76 5.97 16.8C6.01 16.84 6.07 16.86 6.15 16.86H7.35C8.23 16.86 8.92 16.53 9.42 15.87C9.92 15.19 10.17 14.26 10.17 13.08C10.17 12.1 10.05 11.36 9.81 10.86C9.59 10.36 9.26 10.02 8.82 9.84C8.4 9.66 7.88 9.57 7.26 9.57H6.15C6.05 9.57 5.98 9.58 5.94 9.6C5.92 9.62 5.91 9.7 5.91 9.84V16.62ZM29.6341 25.95C29.6341 26.43 29.3541 26.74 28.7941 26.88C28.5141 26.98 28.1641 27.05 27.7441 27.09C27.3441 27.15 26.9541 27.19 26.5741 27.21C26.2141 27.23 25.9341 27.24 25.7341 27.24C23.3141 27.24 21.3741 26.37 19.9141 24.63C18.4541 22.89 17.7241 20.33 17.7241 16.95C17.7241 13.55 18.4241 10.98 19.8241 9.24C21.2441 7.48 23.2141 6.6 25.7341 6.6C25.9341 6.6 26.2141 6.62 26.5741 6.66C26.9541 6.68 27.3441 6.72 27.7441 6.78C28.1641 6.82 28.5141 6.89 28.7941 6.99C29.0741 7.05 29.2841 7.13 29.4241 7.23C29.5641 7.33 29.6341 7.47 29.6341 7.65V10.26C29.6341 10.8 29.3441 10.87 28.7641 10.47C28.3641 10.21 27.9241 10.02 27.4441 9.9C26.9641 9.76 26.4941 9.69 26.0341 9.69C25.2141 9.69 24.5241 9.87 23.9641 10.23C23.4241 10.57 22.9941 11.06 22.6741 11.7C22.3541 12.32 22.1241 13.04 21.9841 13.86C21.8441 14.68 21.7741 15.58 21.7741 16.56C21.7741 17.22 21.8041 17.9 21.8641 18.6C21.9441 19.3 22.0641 19.99 22.2241 20.67C22.4041 21.33 22.6441 21.93 22.9441 22.47C23.2641 23.01 23.6741 23.44 24.1741 23.76C24.6941 24.06 25.3141 24.21 26.0341 24.21C26.5541 24.21 27.0541 24.15 27.5341 24.03C28.0141 23.89 28.3941 23.74 28.6741 23.58C29.0541 23.34 29.3041 23.23 29.4241 23.25C29.5641 23.27 29.6341 23.43 29.6341 23.73V25.95Z"
    fill="white" />
</svg>