<svg width="66" height="66" viewBox="0 0 66 66" fill="none" xmlns="http://www.w3.org/2000/svg">
  <g filter="url(#filter0_d_310_2)">
    <circle cx="33" cy="29" r="18" fill="#FDF8F8" />
  </g>
  <g clip-path="url(#clip0_310_2)">
    <path
      d="M31.795 23.2L28.9758 19.9458C28.6508 19.5708 28.055 19.5725 27.6775 19.9508L25.3592 22.2733C24.6692 22.9642 24.4717 23.99 24.8708 24.8125C27.2555 29.75 31.2375 33.7376 36.1717 36.1292C36.9933 36.5283 38.0183 36.3308 38.7083 35.64L41.0483 33.2958C41.4275 32.9167 41.4283 32.3175 41.05 31.9925L37.7833 29.1883C37.4417 28.895 36.9108 28.9333 36.5683 29.2767L35.4317 30.415C35.3735 30.476 35.2969 30.5162 35.2136 30.5294C35.1304 30.5427 35.0451 30.5283 34.9708 30.4883C33.1129 29.4184 31.5717 27.8752 30.5042 26.0158C30.4642 25.9415 30.4497 25.856 30.463 25.7726C30.4762 25.6892 30.5164 25.6125 30.5775 25.5542L31.7108 24.42C32.0542 24.075 32.0917 23.5417 31.795 23.1992V23.2Z"
      stroke="black" stroke-width="2" stroke-linecap="round" stroke-linejoin="round" />
  </g>
  <defs>
    <filter id="filter0_d_310_2" x="0" y="0" width="66" height="66" filterUnits="userSpaceOnUse"
      color-interpolation-filters="sRGB">
      <feFlood flood-opacity="0" result="BackgroundImageFix" />
      <feColorMatrix in="SourceAlpha" type="matrix" values="0 0 0 0 0 0 0 0 0 0 0 0 0 0 0 0 0 0 127 0"
        result="hardAlpha" />
      <feOffset dy="4" />
      <feGaussianBlur stdDeviation="7.5" />
      <feComposite in2="hardAlpha" operator="out" />
      <feColorMatrix type="matrix" values="0 0 0 0 0 0 0 0 0 0 0 0 0 0 0 0 0 0 0.5 0" />
      <feBlend mode="normal" in2="BackgroundImageFix" result="effect1_dropShadow_310_2" />
      <feBlend mode="normal" in="SourceGraphic" in2="effect1_dropShadow_310_2" result="shape" />
    </filter>
    <clipPath id="clip0_310_2">
      <rect width="20" height="20" fill="white" transform="translate(23 18)" />
    </clipPath>
  </defs>
</svg>