<svg width="169" height="26" viewBox="0 0 169 26" fill="none" xmlns="http://www.w3.org/2000/svg">
  <path
    d="M1.34 22C1.08 22 0.95 21.88 0.95 21.64V2.2C0.95 1.94 1.08 1.81 1.34 1.81H6.41C7.97 1.81 9.23 2.02 10.19 2.44C11.17 2.84 11.89 3.49 12.35 4.39C12.81 5.29 13.04 6.51 13.04 8.05C13.04 9.13 12.85 10.14 12.47 11.08C12.09 12.02 11.49 12.8 10.67 13.42C10.39 13.68 10.18 13.92 10.04 14.14C9.92 14.36 9.97 14.65 10.19 15.01C10.35 15.37 10.53 15.73 10.73 16.09C10.93 16.43 11.15 16.74 11.39 17.02C11.63 17.3 11.9 17.54 12.2 17.74C12.52 17.96 12.88 18.13 13.28 18.25C13.68 18.37 14.15 18.43 14.69 18.43C14.87 18.43 14.98 18.45 15.02 18.49C15.08 18.53 15.11 18.66 15.11 18.88V21.64C15.11 21.76 15.09 21.84 15.05 21.88C15.01 21.92 14.89 21.95 14.69 21.97C14.49 21.99 14.15 22 13.67 22C12.85 22 12.09 21.88 11.39 21.64C10.71 21.4 10.09 21.07 9.53 20.65C9.03 20.27 8.56 19.82 8.12 19.3C7.7 18.76 7.33 18.18 7.01 17.56C6.69 16.94 6.41 16.29 6.17 15.61C6.15 15.57 6.11 15.46 6.05 15.28C5.99 15.1 5.9 15.01 5.78 15.01H5.09C4.97 15.01 4.91 15.16 4.91 15.46V21.64C4.91 21.88 4.77 22 4.49 22H1.34ZM4.91 11.62C4.91 11.7 4.93 11.76 4.97 11.8C5.01 11.84 5.07 11.86 5.15 11.86H6.35C7.23 11.86 7.92 11.53 8.42 10.87C8.92 10.19 9.17 9.26 9.17 8.08C9.17 7.1 9.05 6.36 8.81 5.86C8.59 5.36 8.26 5.02 7.82 4.84C7.4 4.66 6.88 4.57 6.26 4.57H5.15C5.05 4.57 4.98 4.58 4.94 4.6C4.92 4.62 4.91 4.7 4.91 4.84V11.62ZM23.0827 22.24C21.3427 22.24 19.9927 21.92 19.0327 21.28C18.0927 20.62 17.4327 19.74 17.0527 18.64C16.6927 17.52 16.5127 16.25 16.5127 14.83C16.5127 13.45 16.7227 12.22 17.1427 11.14C17.5627 10.04 18.2427 9.18 19.1827 8.56C20.1427 7.92 21.4427 7.6 23.0827 7.6C24.7427 7.6 26.0427 7.92 26.9827 8.56C27.9427 9.18 28.6227 10.04 29.0227 11.14C29.4427 12.22 29.6527 13.45 29.6527 14.83C29.6527 16.23 29.4727 17.49 29.1127 18.61C28.7527 19.71 28.0927 20.59 27.1327 21.25C26.1927 21.91 24.8427 22.24 23.0827 22.24ZM23.0527 19.3C24.0327 19.3 24.7227 18.92 25.1227 18.16C25.5227 17.4 25.7227 16.33 25.7227 14.95C25.7227 13.57 25.5027 12.53 25.0627 11.83C24.6427 11.11 23.9727 10.75 23.0527 10.75C22.1527 10.75 21.4827 11.11 21.0427 11.83C20.6227 12.53 20.4127 13.57 20.4127 14.95C20.4127 16.35 20.6027 17.43 20.9827 18.19C21.3827 18.93 22.0727 19.3 23.0527 19.3ZM32.4706 22C32.1906 22 32.0506 21.87 32.0506 21.61C32.0506 19.53 32.0506 17.46 32.0506 15.4C32.0506 13.32 32.0506 11.24 32.0506 9.16C32.0506 8.96 32.1206 8.81 32.2606 8.71C32.4006 8.61 32.6706 8.49 33.0706 8.35C33.3306 8.27 33.7106 8.18 34.2106 8.08C34.7306 7.96 35.2906 7.85 35.8906 7.75C36.4906 7.65 37.0306 7.6 37.5106 7.6C39.1706 7.6 40.4406 7.92 41.3206 8.56C42.2206 9.18 42.8306 10.01 43.1506 11.05C43.4906 12.07 43.6606 13.2 43.6606 14.44C43.6606 15.18 43.6406 15.96 43.6006 16.78C43.5806 17.58 43.5406 18.37 43.4806 19.15C43.4206 19.93 43.3606 20.64 43.3006 21.28C43.2606 21.64 43.2006 21.85 43.1206 21.91C43.0406 21.97 42.8606 22 42.5806 22H40.1206C39.8406 22 39.6506 21.97 39.5506 21.91C39.4706 21.83 39.4406 21.67 39.4606 21.43C39.4606 21.35 39.4706 21.04 39.4906 20.5C39.5306 19.94 39.5706 19.28 39.6106 18.52C39.6506 17.76 39.6806 17.01 39.7006 16.27C39.7406 15.53 39.7606 14.93 39.7606 14.47C39.7606 13.43 39.6706 12.64 39.4906 12.1C39.3106 11.54 39.0506 11.16 38.7106 10.96C38.3706 10.76 37.9406 10.66 37.4206 10.66C37.2206 10.66 37.0306 10.67 36.8506 10.69C36.6706 10.71 36.5106 10.74 36.3706 10.78C36.1906 10.8 36.0606 10.88 35.9806 11.02C35.9006 11.16 35.8606 11.39 35.8606 11.71C35.8606 12.55 35.8606 13.52 35.8606 14.62C35.8606 15.72 35.8606 16.86 35.8606 18.04C35.8606 19.22 35.8606 20.41 35.8606 21.61C35.8606 21.87 35.7506 22 35.5306 22H32.4706ZM51.6031 22.21C50.5831 22.21 49.6231 22.1 48.7231 21.88C47.8431 21.64 47.1231 21.19 46.5631 20.53C46.0231 19.87 45.7531 18.91 45.7531 17.65C45.7531 16.61 45.9431 15.76 46.3231 15.1C46.7231 14.42 47.2231 13.9 47.8231 13.54C48.4431 13.18 49.0831 12.94 49.7431 12.82C50.4031 12.68 50.9931 12.61 51.5131 12.61C51.9331 12.61 52.3331 12.63 52.7131 12.67C53.1131 12.69 53.4831 12.73 53.8231 12.79C54.0031 12.85 54.0931 12.72 54.0931 12.4C54.0931 11.66 53.8631 11.14 53.4031 10.84C52.9631 10.54 52.3431 10.39 51.5431 10.39C50.7831 10.39 50.0531 10.53 49.3531 10.81C48.6731 11.09 48.0931 11.35 47.6131 11.59C47.3931 11.71 47.2431 11.75 47.1631 11.71C47.1031 11.67 47.0531 11.54 47.0131 11.32L46.7431 9.64C46.7031 9.38 46.7031 9.21 46.7431 9.13C46.7831 9.05 46.8931 8.95 47.0731 8.83C47.5931 8.49 48.2531 8.22 49.0531 8.02C49.8531 7.8 50.7031 7.69 51.6031 7.69C52.9631 7.69 54.0531 7.85 54.8731 8.17C55.6931 8.47 56.3031 8.88 56.7031 9.4C57.1231 9.92 57.3931 10.52 57.5131 11.2C57.6531 11.86 57.7231 12.55 57.7231 13.27C57.7431 14.11 57.7431 14.94 57.7231 15.76C57.7231 16.56 57.7031 17.36 57.6631 18.16C57.6231 18.96 57.5631 19.77 57.4831 20.59C57.4431 20.81 57.3831 20.98 57.3031 21.1C57.2231 21.2 57.0631 21.31 56.8231 21.43C56.5431 21.57 56.1731 21.69 55.7131 21.79C55.2531 21.87 54.7531 21.94 54.2131 22C53.6931 22.08 53.2031 22.13 52.7431 22.15C52.2831 22.19 51.9031 22.21 51.6031 22.21ZM51.8431 19.9C52.0031 19.9 52.1831 19.89 52.3831 19.87C52.5831 19.83 52.7831 19.78 52.9831 19.72C53.1831 19.66 53.3431 19.58 53.4631 19.48C53.6031 19.38 53.6831 19.25 53.7031 19.09C53.7631 18.61 53.8131 18.08 53.8531 17.5C53.8931 16.92 53.8931 16.36 53.8531 15.82C53.8531 15.56 53.7531 15.38 53.5531 15.28C53.3531 15.14 53.0631 15.06 52.6831 15.04C52.3231 15 52.0231 14.98 51.7831 14.98C51.6031 14.98 51.3731 15.02 51.0931 15.1C50.8331 15.16 50.5831 15.28 50.3431 15.46C50.1031 15.64 49.9031 15.91 49.7431 16.27C49.6031 16.63 49.5331 17.09 49.5331 17.65C49.5331 18.09 49.6231 18.48 49.8031 18.82C49.9831 19.16 50.2431 19.43 50.5831 19.63C50.9231 19.81 51.3431 19.9 51.8431 19.9ZM60.2049 21.64V1.12C60.2049 0.88 60.3349 0.76 60.5949 0.76H63.6249C63.9049 0.76 64.0449 0.88 64.0449 1.12V21.64C64.0449 21.88 63.9049 22 63.6249 22H60.5949C60.3349 22 60.2049 21.88 60.2049 21.64ZM66.526 15.13C66.566 13.61 66.766 12.37 67.126 11.41C67.506 10.45 67.986 9.7 68.566 9.16C69.166 8.62 69.826 8.25 70.546 8.05C71.266 7.85 71.996 7.75 72.736 7.75C73.016 7.75 73.336 7.78 73.696 7.84C74.056 7.9 74.336 7.95 74.536 7.99C74.676 8.03 74.786 8.04 74.866 8.02C74.966 8 75.016 7.91 75.016 7.75C75.016 7.39 75.006 7.01 74.986 6.61C74.986 6.21 74.966 5.81 74.926 5.41C74.906 4.99 74.876 4.58 74.836 4.18C74.796 3.76 74.756 3.37 74.716 3.01C74.696 2.63 74.666 2.29 74.626 1.99C74.586 1.65 74.596 1.45 74.656 1.39C74.736 1.33 74.866 1.3 75.046 1.3H77.926C78.066 1.3 78.176 1.31 78.256 1.33C78.356 1.35 78.416 1.43 78.436 1.57C78.516 2.39 78.586 3.35 78.646 4.45C78.706 5.53 78.756 6.7 78.796 7.96C78.836 9.2 78.856 10.45 78.856 11.71C78.876 12.97 78.866 14.18 78.826 15.34C78.806 16.5 78.756 17.53 78.676 18.43C78.616 19.33 78.526 20.02 78.406 20.5C78.346 20.74 78.256 20.92 78.136 21.04C78.036 21.16 77.766 21.3 77.326 21.46C76.946 21.62 76.336 21.79 75.496 21.97C74.656 22.13 73.736 22.21 72.736 22.21C71.956 22.19 71.226 22.1 70.546 21.94C69.886 21.76 69.306 21.48 68.806 21.1C68.046 20.56 67.476 19.8 67.096 18.82C66.716 17.82 66.526 16.59 66.526 15.13ZM70.456 15.16C70.436 16.54 70.596 17.52 70.936 18.1C71.296 18.66 71.746 18.98 72.286 19.06C72.526 19.14 72.776 19.19 73.036 19.21C73.316 19.21 73.586 19.19 73.846 19.15C74.126 19.09 74.366 19.02 74.566 18.94C74.626 18.9 74.666 18.86 74.686 18.82C74.726 18.76 74.746 18.68 74.746 18.58C74.766 18.14 74.786 17.68 74.806 17.2C74.846 16.72 74.866 16.24 74.866 15.76C74.886 15.28 74.906 14.8 74.926 14.32C74.946 13.84 74.956 13.38 74.956 12.94C74.976 12.5 74.976 12.09 74.956 11.71C74.956 11.57 74.936 11.48 74.896 11.44C74.876 11.38 74.826 11.34 74.746 11.32C74.486 11.22 74.176 11.14 73.816 11.08C73.476 11 73.186 10.96 72.946 10.96C72.706 10.96 72.436 11.01 72.136 11.11C71.856 11.21 71.586 11.4 71.326 11.68C71.086 11.96 70.886 12.38 70.726 12.94C70.566 13.48 70.476 14.22 70.456 15.16ZM87.6238 22.24C85.8838 22.24 84.5338 21.92 83.5738 21.28C82.6338 20.62 81.9738 19.74 81.5938 18.64C81.2338 17.52 81.0538 16.25 81.0538 14.83C81.0538 13.45 81.2638 12.22 81.6838 11.14C82.1038 10.04 82.7838 9.18 83.7238 8.56C84.6838 7.92 85.9838 7.6 87.6238 7.6C89.2838 7.6 90.5838 7.92 91.5238 8.56C92.4838 9.18 93.1638 10.04 93.5638 11.14C93.9838 12.22 94.1938 13.45 94.1938 14.83C94.1938 16.23 94.0138 17.49 93.6538 18.61C93.2938 19.71 92.6338 20.59 91.6738 21.25C90.7338 21.91 89.3838 22.24 87.6238 22.24ZM87.5938 19.3C88.5738 19.3 89.2638 18.92 89.6638 18.16C90.0638 17.4 90.2638 16.33 90.2638 14.95C90.2638 13.57 90.0438 12.53 89.6038 11.83C89.1838 11.11 88.5138 10.75 87.5938 10.75C86.6938 10.75 86.0238 11.11 85.5838 11.83C85.1638 12.53 84.9538 13.57 84.9538 14.95C84.9538 16.35 85.1438 17.43 85.5238 18.19C85.9238 18.93 86.6138 19.3 87.5938 19.3ZM115.177 20.95C115.177 21.43 114.897 21.74 114.337 21.88C114.057 21.98 113.707 22.05 113.287 22.09C112.887 22.15 112.497 22.19 112.117 22.21C111.757 22.23 111.477 22.24 111.277 22.24C108.857 22.24 106.917 21.37 105.457 19.63C103.997 17.89 103.267 15.33 103.267 11.95C103.267 8.55 103.967 5.98 105.367 4.24C106.787 2.48 108.757 1.6 111.277 1.6C111.477 1.6 111.757 1.62 112.117 1.66C112.497 1.68 112.887 1.72 113.287 1.78C113.707 1.82 114.057 1.89 114.337 1.99C114.617 2.05 114.827 2.13 114.967 2.23C115.107 2.33 115.177 2.47 115.177 2.65V5.26C115.177 5.8 114.887 5.87 114.307 5.47C113.907 5.21 113.467 5.02 112.987 4.9C112.507 4.76 112.037 4.69 111.577 4.69C110.757 4.69 110.067 4.87 109.507 5.23C108.967 5.57 108.537 6.06 108.217 6.7C107.897 7.32 107.667 8.04 107.527 8.86C107.387 9.68 107.317 10.58 107.317 11.56C107.317 12.22 107.347 12.9 107.407 13.6C107.487 14.3 107.607 14.99 107.767 15.67C107.947 16.33 108.187 16.93 108.487 17.47C108.807 18.01 109.217 18.44 109.717 18.76C110.237 19.06 110.857 19.21 111.577 19.21C112.097 19.21 112.597 19.15 113.077 19.03C113.557 18.89 113.937 18.74 114.217 18.58C114.597 18.34 114.847 18.23 114.967 18.25C115.107 18.27 115.177 18.43 115.177 18.73V20.95ZM119.849 18.82C119.469 18.06 119.109 17.26 118.769 16.42C118.449 15.56 118.149 14.68 117.869 13.78C117.589 12.88 117.349 11.98 117.149 11.08C116.949 10.16 116.769 9.28 116.609 8.44C116.549 8.04 116.669 7.84 116.969 7.84H119.969C120.189 7.84 120.339 7.9 120.419 8.02C120.519 8.12 120.589 8.32 120.629 8.62C120.669 8.92 120.729 9.31 120.809 9.79C120.889 10.25 120.989 10.76 121.109 11.32C121.229 11.86 121.359 12.43 121.499 13.03C121.639 13.61 121.789 14.17 121.949 14.71C122.129 15.25 122.289 15.74 122.429 16.18C122.509 16.32 122.589 16.39 122.669 16.39C122.749 16.39 122.799 16.32 122.819 16.18C122.999 15.62 123.179 15.02 123.359 14.38C123.539 13.74 123.719 13.08 123.899 12.4C124.079 11.72 124.239 11.04 124.379 10.36C124.519 9.68 124.649 9.02 124.769 8.38C124.809 8.18 124.859 8.04 124.919 7.96C124.999 7.88 125.149 7.84 125.369 7.84H127.949C128.129 7.84 128.269 7.88 128.369 7.96C128.489 8.02 128.519 8.19 128.459 8.47C128.339 9.27 128.189 10.04 128.009 10.78C127.829 11.5 127.629 12.24 127.409 13C127.189 13.74 126.919 14.58 126.599 15.52C126.379 16.1 126.119 16.82 125.819 17.68C125.519 18.52 125.139 19.4 124.679 20.32C124.219 21.24 123.669 22.09 123.029 22.87C122.409 23.65 121.669 24.29 120.809 24.79C119.969 25.29 119.009 25.54 117.929 25.54C117.389 25.54 116.929 25.5 116.549 25.42C116.189 25.36 115.879 25.27 115.619 25.15C115.199 24.95 115.089 24.66 115.289 24.28L116.009 22.87C116.109 22.69 116.199 22.6 116.279 22.6C116.359 22.6 116.469 22.62 116.609 22.66C116.949 22.74 117.309 22.74 117.689 22.66C118.089 22.6 118.449 22.48 118.769 22.3C119.129 22.1 119.409 21.89 119.609 21.67C119.829 21.45 119.989 21.22 120.089 20.98C120.249 20.64 120.289 20.28 120.209 19.9C120.149 19.52 120.029 19.16 119.849 18.82ZM130.103 18.52C130.163 18.3 130.253 18.21 130.373 18.25C130.513 18.27 130.643 18.32 130.763 18.4C131.103 18.56 131.493 18.71 131.933 18.85C132.393 18.97 132.863 19.07 133.343 19.15C133.823 19.21 134.253 19.24 134.633 19.24C135.033 19.24 135.393 19.2 135.713 19.12C136.053 19.02 136.323 18.87 136.523 18.67C136.723 18.47 136.823 18.21 136.823 17.89C136.843 17.45 136.643 17.12 136.223 16.9C135.823 16.66 135.113 16.43 134.093 16.21C133.453 16.07 132.793 15.87 132.113 15.61C131.453 15.33 130.903 14.92 130.463 14.38C130.023 13.82 129.803 13.09 129.803 12.19C129.803 11.17 130.063 10.34 130.583 9.7C131.103 9.04 131.773 8.54 132.593 8.2C133.433 7.86 134.323 7.69 135.263 7.69C136.003 7.69 136.813 7.8 137.693 8.02C138.573 8.24 139.303 8.52 139.883 8.86C140.063 8.96 140.153 9.05 140.153 9.13C140.173 9.21 140.163 9.32 140.123 9.46L139.403 11.41C139.343 11.65 139.153 11.71 138.833 11.59C138.393 11.33 137.853 11.09 137.213 10.87C136.573 10.65 135.923 10.54 135.263 10.54C134.803 10.54 134.393 10.66 134.033 10.9C133.693 11.12 133.523 11.41 133.523 11.77C133.523 12.21 133.723 12.53 134.123 12.73C134.523 12.93 135.103 13.11 135.863 13.27C136.423 13.39 136.963 13.53 137.483 13.69C138.003 13.83 138.483 14.05 138.923 14.35C139.363 14.63 139.713 15.02 139.973 15.52C140.233 16 140.363 16.63 140.363 17.41C140.363 18.31 140.193 19.07 139.853 19.69C139.513 20.29 139.053 20.77 138.473 21.13C137.913 21.49 137.293 21.75 136.613 21.91C135.953 22.07 135.293 22.15 134.633 22.15C134.273 22.15 133.803 22.11 133.223 22.03C132.643 21.95 132.053 21.82 131.453 21.64C130.853 21.46 130.343 21.22 129.923 20.92C129.843 20.88 129.773 20.83 129.713 20.77C129.673 20.69 129.663 20.59 129.683 20.47L130.103 18.52ZM143.008 22C142.728 22 142.588 21.87 142.588 21.61C142.588 19.53 142.588 17.46 142.588 15.4C142.588 13.32 142.588 11.24 142.588 9.16C142.588 8.96 142.658 8.81 142.798 8.71C142.938 8.61 143.208 8.49 143.608 8.35C143.868 8.27 144.248 8.18 144.748 8.08C145.268 7.96 145.828 7.85 146.428 7.75C147.028 7.65 147.568 7.6 148.048 7.6C149.708 7.6 150.978 7.92 151.858 8.56C152.758 9.18 153.368 10.01 153.688 11.05C154.028 12.07 154.198 13.2 154.198 14.44C154.198 15.18 154.178 15.96 154.138 16.78C154.118 17.58 154.078 18.37 154.018 19.15C153.958 19.93 153.898 20.64 153.838 21.28C153.798 21.64 153.738 21.85 153.658 21.91C153.578 21.97 153.398 22 153.118 22H150.658C150.378 22 150.188 21.97 150.088 21.91C150.008 21.83 149.978 21.67 149.998 21.43C149.998 21.35 150.008 21.04 150.028 20.5C150.068 19.94 150.108 19.28 150.148 18.52C150.188 17.76 150.218 17.01 150.238 16.27C150.278 15.53 150.298 14.93 150.298 14.47C150.298 13.43 150.208 12.64 150.028 12.1C149.848 11.54 149.588 11.16 149.248 10.96C148.908 10.76 148.478 10.66 147.958 10.66C147.758 10.66 147.568 10.67 147.388 10.69C147.208 10.71 147.048 10.74 146.908 10.78C146.728 10.8 146.598 10.88 146.518 11.02C146.438 11.16 146.398 11.39 146.398 11.71C146.398 12.55 146.398 13.52 146.398 14.62C146.398 15.72 146.398 16.86 146.398 18.04C146.398 19.22 146.398 20.41 146.398 21.61C146.398 21.87 146.288 22 146.068 22H143.008ZM156.2 14.89C156.2 13.95 156.3 13.05 156.5 12.19C156.7 11.33 157.03 10.55 157.49 9.85C157.97 9.15 158.62 8.6 159.44 8.2C160.28 7.8 161.33 7.6 162.59 7.6C163.91 7.6 164.96 7.79 165.74 8.17C166.52 8.53 167.11 9.02 167.51 9.64C167.91 10.26 168.17 10.94 168.29 11.68C168.43 12.4 168.5 13.12 168.5 13.84C168.5 14.68 168.4 15.24 168.2 15.52C168.02 15.78 167.73 15.91 167.33 15.91H160.37C160.25 15.91 160.17 15.94 160.13 16C160.11 16.04 160.1 16.13 160.1 16.27C160.1 16.87 160.23 17.42 160.49 17.92C160.77 18.4 161.17 18.78 161.69 19.06C162.21 19.34 162.82 19.48 163.52 19.48C164.18 19.48 164.81 19.38 165.41 19.18C166.01 18.96 166.45 18.77 166.73 18.61C166.97 18.47 167.16 18.39 167.3 18.37C167.44 18.33 167.59 18.47 167.75 18.79L168.38 20.05C168.5 20.27 168.53 20.43 168.47 20.53C168.41 20.61 168.28 20.72 168.08 20.86C167.38 21.34 166.54 21.69 165.56 21.91C164.58 22.13 163.6 22.24 162.62 22.24C161.32 22.24 160.25 22.05 159.41 21.67C158.57 21.29 157.92 20.76 157.46 20.08C157 19.4 156.67 18.62 156.47 17.74C156.29 16.84 156.2 15.89 156.2 14.89ZM164.63 13.21C164.63 12.65 164.56 12.17 164.42 11.77C164.28 11.37 164.05 11.06 163.73 10.84C163.43 10.62 163.02 10.51 162.5 10.51C162.08 10.51 161.72 10.59 161.42 10.75C161.14 10.91 160.91 11.12 160.73 11.38C160.55 11.64 160.41 11.93 160.31 12.25C160.21 12.55 160.14 12.84 160.1 13.12C160.08 13.44 160.08 13.64 160.1 13.72C160.12 13.78 160.2 13.81 160.34 13.81H164.27C164.45 13.81 164.56 13.78 164.6 13.72C164.64 13.66 164.65 13.49 164.63 13.21Z"
    fill="black" />
</svg>